<svg xmlns="http://www.w3.org/2000/svg" viewBox="0 0 512 512">
  <defs>
    <linearGradient id="g" x1="0" y1="0" x2="1" y2="1">
      <stop stop-color="#ff2bd6"/>
      <stop offset=".5" stop-color="#8d5cff"/>
      <stop offset="1" stop-color="#28f7ff"/>
    </linearGradient>
    <filter id="glow">
      <feGaussianBlur stdDeviation="12" result="b"/>
      <feMerge><feMergeNode in="b"/><feMergeNode in="SourceGraphic"/></feMerge>
    </filter>
  </defs>
  <rect width="512" height="512" rx="110" fill="#05030c"/>
  <path d="M50 122h412M50 390h412M122 50v412M390 50v412" stroke="#8d5cff" opacity=".2"/>
  <circle cx="256" cy="256" r="173" fill="none" stroke="url(#g)" stroke-width="12" filter="url(#glow)"/>
  <circle cx="256" cy="256" r="136" fill="#0b0819" stroke="#28f7ff" stroke-width="3" stroke-dasharray="8 14"/>
  <path d="M160 157h112c64 0 100 29 100 78 0 38-23 65-61 76l50 61h-83l-42-55h-21l-15 55h-76l58-215zm67 55-14 52h44c25 0 38-10 38-29 0-15-11-23-33-23h-35z" fill="url(#g)" filter="url(#glow)"/>
  <text x="256" y="430" fill="#f7f3ff" font-family="Arial Black, sans-serif" font-size="39" font-style="italic" text-anchor="middle">RVU RUSH</text>
</svg>
