<svg xmlns="http://www.w3.org/2000/svg" viewBox="0 0 800 520" role="img" aria-label="Stylized llama with long face and banana-shaped ears">
  <rect width="800" height="520" fill="#eaf7ff"/>
  <circle cx="130" cy="110" r="70" fill="#ffe9a7" opacity=".65"/>
  <path d="M110 415c80-92 188-134 326-124 132 10 217 55 255 124H110z" fill="#96c8a2"/>
  <path d="M320 380c-7-78-5-156 8-235 6-35 28-57 66-65 39-8 69 9 89 50 19 38 25 80 18 126l-12 86" fill="#d8b07c"/>
  <path d="M382 103c-10-48-7-78 9-90 22 13 37 45 45 96" fill="#c89560"/>
  <path d="M454 111c17-46 37-70 59-72 9 29-1 65-31 107" fill="#c89560"/>
  <path d="M331 164c38-34 92-42 144-18 35 16 61 47 69 82 10 45-4 95-39 135-48 55-128 70-178 32-42-32-53-94-36-153 8-28 21-54 40-78z" fill="#e5c091"/>
  <path d="M388 216c44 1 82 27 97 69 14 39 3 87-28 112-30 24-80 24-112 0-33-25-44-76-25-119 14-32 39-56 68-62z" fill="#f1d5b3"/>
  <circle cx="383" cy="240" r="11" fill="#1f2937"/>
  <circle cx="466" cy="246" r="11" fill="#1f2937"/>
  <path d="M408 289c21 9 42 9 63 0" fill="none" stroke="#5b3d29" stroke-width="10" stroke-linecap="round"/>
  <path d="M268 384c-25 13-44 43-57 91M511 380c17 25 31 56 41 94" stroke="#8d633f" stroke-width="22" stroke-linecap="round"/>
  <text x="400" y="486" text-anchor="middle" font-family="Arial, sans-serif" font-size="38" fill="#1f2937" font-weight="700">Llama</text>
</svg>
