<svg xmlns="http://www.w3.org/2000/svg" viewBox="0 0 512 512">
  <rect width="512" height="512" rx="112" fill="#12372a"/>
  <path d="M153 116h206a42 42 0 0 1 42 42v238H111V158a42 42 0 0 1 42-42Z" fill="#fffdf7"/>
  <path d="M197 99a28 28 0 0 1 28-28h62a28 28 0 0 1 28 28v46H197Z" fill="#dcebe2" stroke="#12372a" stroke-width="18"/>
  <path d="M174 218h164M174 278h164M174 338h98" fill="none" stroke="#24624c" stroke-width="24" stroke-linecap="round"/>
  <circle cx="351" cy="353" r="74" fill="#c36e16"/>
  <path d="m315 353 24 24 49-54" fill="none" stroke="#fff" stroke-width="22" stroke-linecap="round" stroke-linejoin="round"/>
</svg>
