<svg xmlns="http://www.w3.org/2000/svg" viewBox="0 0 800 520" role="img" aria-label="Stylized moth with muted flat wings and feathery antennae">
  <rect width="800" height="520" fill="#f8fafc"/>
  <path d="M397 234c-98-67-207-70-278-4 21 93 102 148 206 139 48-4 78-42 72-135z" fill="#a3a3a3"/>
  <path d="M403 234c98-67 207-70 278-4-21 93-102 148-206 139-48-4-78-42-72-135z" fill="#78716c"/>
  <path d="M388 300c-61 59-126 75-197 48 30 69 93 101 171 83 41-10 58-51 26-131z" fill="#d6d3d1"/>
  <path d="M412 300c61 59 126 75 197 48-30 69-93 101-171 83-41-10-58-51-26-131z" fill="#a8a29e"/>
  <ellipse cx="400" cy="278" rx="33" ry="132" fill="#3f3f46"/>
  <circle cx="400" cy="142" r="27" fill="#27272a"/>
  <path d="M387 121c-34-35-68-50-101-45M413 121c34-35 68-50 101-45" fill="none" stroke="#27272a" stroke-width="8" stroke-linecap="round"/>
  <path d="M313 73l-17-25M327 78l-12-28M342 84l-6-29M487 73l17-25M473 78l12-28M458 84l6-29" stroke="#27272a" stroke-width="6" stroke-linecap="round"/>
  <circle cx="285" cy="263" r="27" fill="#f5f5f4" opacity=".65"/>
  <circle cx="515" cy="263" r="27" fill="#f5f5f4" opacity=".65"/>
  <text x="400" y="486" text-anchor="middle" font-family="Arial, sans-serif" font-size="38" fill="#1f2937" font-weight="700">Moth</text>
</svg>
