<svg xmlns="http://www.w3.org/2000/svg" viewBox="0 0 800 520" role="img" aria-label="Stylized alpaca with fluffy face">
  <rect width="800" height="520" fill="#fff7ed"/>
  <circle cx="650" cy="100" r="72" fill="#fecaca" opacity=".45"/>
  <path d="M105 420c77-89 188-132 335-128 128 4 212 47 255 128H105z" fill="#9fd3c7"/>
  <path d="M320 380c-4-60 4-130 24-210 12-46 45-71 98-73 53-1 91 25 113 79 17 43 18 94 2 154l-12 45" fill="#d9b58a"/>
  <path d="M374 104c-5-38 3-64 24-78 19 19 29 46 30 82" fill="#c89560"/>
  <path d="M487 111c9-39 25-63 49-70 13 25 11 56-7 93" fill="#c89560"/>
  <circle cx="395" cy="157" r="53" fill="#f3dfc6"/>
  <circle cx="461" cy="150" r="57" fill="#f3dfc6"/>
  <circle cx="516" cy="184" r="48" fill="#f3dfc6"/>
  <circle cx="356" cy="210" r="54" fill="#f3dfc6"/>
  <circle cx="430" cy="220" r="74" fill="#f6e7d3"/>
  <circle cx="501" cy="250" r="55" fill="#f3dfc6"/>
  <path d="M356 205c34-23 82-27 122-11 42 17 70 51 73 92 4 57-42 107-111 116-74 10-140-28-149-85-7-43 17-86 65-112z" fill="#f6e7d3"/>
  <circle cx="382" cy="260" r="10" fill="#1f2937"/>
  <circle cx="478" cy="260" r="10" fill="#1f2937"/>
  <path d="M410 305c22 8 42 8 62 0" fill="none" stroke="#5b3d29" stroke-width="9" stroke-linecap="round"/>
  <path d="M277 387c-20 18-36 48-48 88M540 384c15 23 28 53 39 90" stroke="#8d633f" stroke-width="22" stroke-linecap="round"/>
  <text x="400" y="486" text-anchor="middle" font-family="Arial, sans-serif" font-size="38" fill="#1f2937" font-weight="700">Alpaca</text>
</svg>
