<svg xmlns="http://www.w3.org/2000/svg" viewBox="0 0 512 512">
  <defs>
    <linearGradient id="bg" x1="64" y1="48" x2="448" y2="464" gradientUnits="userSpaceOnUse">
      <stop stop-color="#2d9df5"/>
      <stop offset="1" stop-color="#7368e8"/>
    </linearGradient>
    <linearGradient id="page" x1="170" y1="130" x2="350" y2="392" gradientUnits="userSpaceOnUse">
      <stop stop-color="#ffffff"/>
      <stop offset="1" stop-color="#dcecff"/>
    </linearGradient>
  </defs>
  <rect width="512" height="512" rx="128" fill="#07101d"/>
  <rect x="42" y="42" width="428" height="428" rx="112" fill="url(#bg)"/>
  <path d="M150 142c0-22 18-40 40-40h132c22 0 40 18 40 40v228c0 22-18 40-40 40H190c-22 0-40-18-40-40V142Z" fill="url(#page)"/>
  <path d="M194 174h124M194 224h124M194 274h82" fill="none" stroke="#347cc5" stroke-linecap="round" stroke-width="22"/>
  <circle cx="323" cy="327" r="66" fill="#07101d"/>
  <path d="m302 327 17 17 31-36" fill="none" stroke="#45d49b" stroke-linecap="round" stroke-linejoin="round" stroke-width="18"/>
</svg>
