<svg xmlns="http://www.w3.org/2000/svg" viewBox="0 0 800 520" role="img" aria-label="Stylized butterfly with bright upright wings and clubbed antennae">
  <rect width="800" height="520" fill="#eef2ff"/>
  <path d="M396 190c-84-104-190-111-244-41-56 72-20 181 87 211 73 21 129-14 158-83" fill="#f97316"/>
  <path d="M404 190c84-104 190-111 244-41 56 72 20 181-87 211-73 21-129-14-158-83" fill="#38bdf8"/>
  <path d="M393 293c-58 97-146 110-190 51-39-53-12-132 66-158 55-18 102 17 124 107z" fill="#fb7185"/>
  <path d="M407 293c58 97 146 110 190 51 39-53 12-132-66-158-55-18-102 17-124 107z" fill="#a78bfa"/>
  <ellipse cx="400" cy="266" rx="30" ry="118" fill="#1f2937"/>
  <circle cx="400" cy="136" r="30" fill="#111827"/>
  <path d="M385 115c-28-38-55-55-82-51M415 115c28-38 55-55 82-51" fill="none" stroke="#111827" stroke-width="9" stroke-linecap="round"/>
  <circle cx="299" cy="63" r="13" fill="#111827"/>
  <circle cx="501" cy="63" r="13" fill="#111827"/>
  <circle cx="284" cy="180" r="32" fill="#fef3c7" opacity=".75"/>
  <circle cx="532" cy="181" r="32" fill="#fef3c7" opacity=".75"/>
  <text x="400" y="486" text-anchor="middle" font-family="Arial, sans-serif" font-size="38" fill="#1f2937" font-weight="700">Butterfly</text>
</svg>
